{
  "accessors": [
    {
      "bufferView": 3,
      "componentType": 5126,
      "count": 1723,
      "max": [
        1.7567510604858398,
        3.376401424407959,
        -0.08909908682107925
      ],
      "min": [
        1.032324194908142,
        1.5414838790893555,
        -0.5131308436393738
      ],
      "type": "VEC3"
    },
    {
      "bufferView": 3,
      "byteOffset": 20676,
      "componentType": 5126,
      "count": 1723,
      "max": [
        0.997270405292511,
        0.9983742237091064,
        0.9993002414703369
      ],
      "min": [
        -0.9993793368339539,
        -0.9465063214302063,
        -0.9998288750648499
      ],
      "type": "VEC3"
    },
    {
      "bufferView": 4,
      "componentType": 5126,
      "count": 1723,
      "max": [
        0.9995682835578918,
        0.9968098998069763,
        0.9982898831367493,
        1.0
      ],
      "min": [
        -0.9956747889518738,
        -0.9972051978111267,
        -0.9997199773788452,
        -1.0
      ],
      "type": "VEC4"
    },
    {
      "bufferView": 2,
      "componentType": 5126,
      "count": 1723,
      "max": [
        0.9998610019683838,
        0.9997556209564209
      ],
      "min": [
        0.010777580551803112,
        0.0003083944320678711
      ],
      "type": "VEC2"
    },
    {
      "bufferView": 1,
      "componentType": 5125,
      "count": 3147,
      "type": "SCALAR"
    },
    {
      "bufferView": 3,
      "byteOffset": 41352,
      "componentType": 5126,
      "count": 11046,
      "max": [
        0.8796778321266174,
        5.276693820953369,
        0.8147139549255371
      ],
      "min": [
        -0.5624027252197266,
        2.6045925617218018,
        -0.5605870485305786
      ],
      "type": "VEC3"
    },
    {
      "bufferView": 3,
      "byteOffset": 173904,
      "componentType": 5126,
      "count": 11046,
      "max": [
        0.9996541142463684,
        0.9978709816932678,
        0.9999279975891113
      ],
      "min": [
        -0.9998630881309509,
        -0.9997557997703552,
        -0.9997571706771851
      ],
      "type": "VEC3"
    },
    {
      "bufferView": 4,
      "byteOffset": 27568,
      "componentType": 5126,
      "count": 11046,
      "max": [
        0.9999967813491821,
        0.9999972581863403,
        0.9999260902404785,
        1.0
      ],
      "min": [
        -0.9997624158859253,
        -0.9971997141838074,
        -0.9999785423278809,
        -1.0
      ],
      "type": "VEC4"
    },
    {
      "bufferView": 2,
      "byteOffset": 13784,
      "componentType": 5126,
      "count": 11046,
      "max": [
        0.9999136924743652,
        0.9998288154602051
      ],
      "min": [
        0.00028350146021693945,
        0.00037288665771484375
      ],
      "type": "VEC2"
    },
    {
      "bufferView": 1,
      "byteOffset": 12588,
      "componentType": 5125,
      "count": 25464,
      "type": "SCALAR"
    },
    {
      "bufferView": 3,
      "byteOffset": 306456,
      "componentType": 5126,
      "count": 16670,
      "max": [
        1.6782402992248535,
        5.119487285614014,
        2.155193567276001
      ],
      "min": [
        -1.6125178337097168,
        -1.8249619007110596,
        -1.7995444536209106
      ],
      "type": "VEC3"
    },
    {
      "bufferView": 3,
      "byteOffset": 506496,
      "componentType": 5126,
      "count": 16670,
      "max": [
        0.9997425079345703,
        0.9994266629219055,
        0.9996964335441589
      ],
      "min": [
        -0.9998815059661865,
        -0.998773455619812,
        -0.9999033212661743
      ],
      "type": "VEC3"
    },
    {
      "bufferView": 2,
      "byteOffset": 102152,
      "componentType": 5126,
      "count": 16670,
      "max": [
        0.9995901584625244,
        1.0
      ],
      "min": [
        0.0,
        0.0004191398620605469
      ],
      "type": "VEC2"
    },
    {
      "bufferView": 1,
      "byteOffset": 114444,
      "componentType": 5125,
      "count": 16680,
      "type": "SCALAR"
    },
    {
      "bufferView": 3,
      "byteOffset": 706536,
      "componentType": 5126,
      "count": 7212,
      "max": [
        1.446388602256775,
        4.276869773864746,
        1.298362135887146
      ],
      "min": [
        -1.0772652626037598,
        0.13629016280174255,
        -1.10780930519104
      ],
      "type": "VEC3"
    },
    {
      "bufferView": 3,
      "byteOffset": 793080,
      "componentType": 5126,
      "count": 7212,
      "max": [
        0.999293863773346,
        0.9985784888267517,
        0.9999443888664246
      ],
      "min": [
        -0.9997683763504028,
        -0.9989892840385437,
        -0.999954879283905
      ],
      "type": "VEC3"
    },
    {
      "bufferView": 4,
      "byteOffset": 204304,
      "componentType": 5126,
      "count": 7212,
      "max": [
        0.999984860420227,
        0.9998605847358704,
        0.9995647668838501,
        1.0
      ],
      "min": [
        -0.9999161958694458,
        -0.9997878074645996,
        -0.9997654557228088,
        -1.0
      ],
      "type": "VEC4"
    },
    {
      "bufferView": 2,
      "byteOffset": 235512,
      "componentType": 5126,
      "count": 7212,
      "max": [
        0.9999065399169922,
        1.0
      ],
      "min": [
        0.0,
        0.0008366107940673828
      ],
      "type": "VEC2"
    },
    {
      "bufferView": 1,
      "byteOffset": 181164,
      "componentType": 5125,
      "count": 21558,
      "type": "SCALAR"
    },
    {
      "bufferView": 3,
      "byteOffset": 879624,
      "componentType": 5126,
      "count": 1670,
      "max": [
        -1.0894137620925903,
        3.2453362941741943,
        0.18659724295139313
      ],
      "min": [
        -1.7056174278259277,
        1.7544589042663574,
        -0.1549241989850998
      ],
      "type": "VEC3"
    },
    {
      "bufferView": 3,
      "byteOffset": 899664,
      "componentType": 5126,
      "count": 1670,
      "max": [
        0.9984588027000427,
        0.9898409843444824,
        0.9998788237571716
      ],
      "min": [
        -0.9987852573394775,
        -0.9874724745750427,
        -0.9973952174186707
      ],
      "type": "VEC3"
    },
    {
      "bufferView": 4,
      "byteOffset": 319696,
      "componentType": 5126,
      "count": 1670,
      "max": [
        0.9992355704307556,
        0.99746173620224,
        0.9996466636657715,
        1.0
      ],
      "min": [
        -0.9925779700279236,
        -0.9978979229927063,
        -0.9987835884094238,
        -1.0
      ],
      "type": "VEC4"
    },
    {
      "bufferView": 2,
      "byteOffset": 293208,
      "componentType": 5126,
      "count": 1670,
      "max": [
        0.9999077916145325,
        0.9997556209564209
      ],
      "min": [
        0.010777580551803112,
        0.0003083944320678711
      ],
      "type": "VEC2"
    },
    {
      "bufferView": 1,
      "byteOffset": 267396,
      "componentType": 5125,
      "count": 3159,
      "type": "SCALAR"
    },
    {
      "bufferView": 3,
      "byteOffset": 919704,
      "componentType": 5126,
      "count": 1086,
      "max": [
        -1.4895821809768677,
        2.0015323162078857,
        0.018772253766655922
      ],
      "min": [
        -1.8035258054733276,
        0.540805459022522,
        -0.03463740646839142
      ],
      "type": "VEC3"
    },
    {
      "bufferView": 3,
      "byteOffset": 932736,
      "componentType": 5126,
      "count": 1086,
      "max": [
        0.999197244644165,
        0.9989895224571228,
        0.9999250769615173
      ],
      "min": [
        -0.9985209703445435,
        -0.9990148544311523,
        -0.9999738931655884
      ],
      "type": "VEC3"
    },
    {
      "bufferView": 4,
      "byteOffset": 346416,
      "componentType": 5126,
      "count": 1086,
      "max": [
        0.8709743022918701,
        0.9985694289207458,
        0.987970769405365,
        1.0
      ],
      "min": [
        -0.8982380032539368,
        -0.99922114610672,
        -0.9891634583473206,
        1.0
      ],
      "type": "VEC4"
    },
    {
      "bufferView": 2,
      "byteOffset": 306568,
      "componentType": 5126,
      "count": 1086,
      "max": [
        0.9944031834602356,
        0.9949040412902832
      ],
      "min": [
        0.00511937215924263,
        0.005263924598693848
      ],
      "type": "VEC2"
    },
    {
      "bufferView": 2,
      "byteOffset": 315256,
      "componentType": 5126,
      "count": 1086,
      "max": [
        0.9944031834602356,
        0.9949040412902832
      ],
      "min": [
        0.00511937215924263,
        0.005263924598693848
      ],
      "type": "VEC2"
    },
    {
      "bufferView": 2,
      "byteOffset": 323944,
      "componentType": 5126,
      "count": 1086,
      "max": [
        0.9944031834602356,
        0.9949040412902832
      ],
      "min": [
        0.00511937215924263,
        0.005263924598693848
      ],
      "type": "VEC2"
    },
    {
      "bufferView": 2,
      "byteOffset": 332632,
      "componentType": 5126,
      "count": 1086,
      "max": [
        0.9944031834602356,
        0.9949040412902832
      ],
      "min": [
        0.00511937215924263,
        0.005263924598693848
      ],
      "type": "VEC2"
    },
    {
      "bufferView": 1,
      "byteOffset": 280032,
      "componentType": 5125,
      "count": 5556,
      "type": "SCALAR"
    },
    {
      "bufferView": 3,
      "byteOffset": 945768,
      "componentType": 5126,
      "count": 1086,
      "max": [
        2.0703859329223633,
        1.9306195974349976,
        -0.2651827931404114
      ],
      "min": [
        1.5504862070083618,
        0.5265965461730957,
        -0.34160032868385315
      ],
      "type": "VEC3"
    },
    {
      "bufferView": 3,
      "byteOffset": 958800,
      "componentType": 5126,
      "count": 1086,
      "max": [
        0.9957866072654724,
        0.9991111755371094,
        0.9994491934776306
      ],
      "min": [
        -0.9975288510322571,
        -0.9992101788520813,
        -0.99949711561203
      ],
      "type": "VEC3"
    },
    {
      "bufferView": 4,
      "byteOffset": 363792,
      "componentType": 5126,
      "count": 1086,
      "max": [
        0.8943847417831421,
        0.9879397749900818,
        0.9936878085136414,
        1.0
      ],
      "min": [
        -0.9358616471290588,
        -0.9952244162559509,
        -0.9888721108436584,
        1.0
      ],
      "type": "VEC4"
    },
    {
      "bufferView": 2,
      "byteOffset": 341320,
      "componentType": 5126,
      "count": 1086,
      "max": [
        0.9944031834602356,
        0.9949040412902832
      ],
      "min": [
        0.00511937215924263,
        0.005263924598693848
      ],
      "type": "VEC2"
    },
    {
      "bufferView": 2,
      "byteOffset": 350008,
      "componentType": 5126,
      "count": 1086,
      "max": [
        0.9944031834602356,
        0.9949040412902832
      ],
      "min": [
        0.00511937215924263,
        0.005263924598693848
      ],
      "type": "VEC2"
    },
    {
      "bufferView": 2,
      "byteOffset": 358696,
      "componentType": 5126,
      "count": 1086,
      "max": [
        0.9944031834602356,
        0.9949040412902832
      ],
      "min": [
        0.00511937215924263,
        0.005263924598693848
      ],
      "type": "VEC2"
    },
    {
      "bufferView": 2,
      "byteOffset": 367384,
      "componentType": 5126,
      "count": 1086,
      "max": [
        0.9944031834602356,
        0.9949040412902832
      ],
      "min": [
        0.00511937215924263,
        0.005263924598693848
      ],
      "type": "VEC2"
    },
    {
      "bufferView": 1,
      "byteOffset": 302256,
      "componentType": 5125,
      "count": 5556,
      "type": "SCALAR"
    },
    {
      "bufferView": 5,
      "componentType": 5126,
      "count": 25,
      "max": [
        1.0,
        0.8618902564048767,
        0.39794281125068665,
        0.0,
        0.6225335001945496,
        1.0,
        1.0,
        0.0,
        0.8618902564048767,
        0.66897052526474,
        1.0,
        0.0,
        2.697361946105957,
        2.984842538833618,
        2.346475839614868,
        1.0
      ],
      "min": [
        -0.9310961961746216,
        -0.8618901968002319,
        -0.8640864491462708,
        0.0,
        -0.7642279267311096,
        -0.9986315369606018,
        -0.6188534498214722,
        0.0,
        -0.9483999609947205,
        -1.0,
        -0.9953692555427551,
        0.0,
        -2.9072515964508057,
        -4.526997089385986,
        -3.994776725769043,
        1.0
      ],
      "type": "MAT4"
    },
    {
      "bufferView": 0,
      "componentType": 5123,
      "count": 1723,
      "type": "VEC4"
    },
    {
      "bufferView": 4,
      "byteOffset": 381168,
      "componentType": 5126,
      "count": 1723,
      "max": [
        1.0,
        0.45320117473602295,
        0.07220105081796646,
        0.0
      ],
      "min": [
        0.546798825263977,
        0.0,
        0.0,
        0.0
      ],
      "type": "VEC4"
    },
    {
      "bufferView": 0,
      "byteOffset": 13784,
      "componentType": 5123,
      "count": 11046,
      "type": "VEC4"
    },
    {
      "bufferView": 4,
      "byteOffset": 408736,
      "componentType": 5126,
      "count": 11046,
      "max": [
        1.0,
        0.4989011287689209,
        0.3055518865585327,
        0.19865933060646057
      ],
      "min": [
        0.29015135765075684,
        0.0,
        0.0,
        0.0
      ],
      "type": "VEC4"
    },
    {
      "bufferView": 0,
      "byteOffset": 102152,
      "componentType": 5123,
      "count": 16670,
      "type": "VEC4"
    },
    {
      "bufferView": 4,
      "byteOffset": 585472,
      "componentType": 5126,
      "count": 16670,
      "max": [
        1.0,
        0.4997899532318115,
        0.3195110559463501,
        0.15589353442192078
      ],
      "min": [
        0.3284361660480499,
        0.0,
        0.0,
        0.0
      ],
      "type": "VEC4"
    },
    {
      "bufferView": 0,
      "byteOffset": 235512,
      "componentType": 5123,
      "count": 7212,
      "type": "VEC4"
    },
    {
      "bufferView": 4,
      "byteOffset": 852192,
      "componentType": 5126,
      "count": 7212,
      "max": [
        1.0,
        0.49919217824935913,
        0.28588247299194336,
        0.21450287103652954
      ],
      "min": [
        0.3033519685268402,
        0.0,
        0.0,
        0.0
      ],
      "type": "VEC4"
    },
    {
      "bufferView": 0,
      "byteOffset": 293208,
      "componentType": 5123,
      "count": 1670,
      "type": "VEC4"
    },
    {
      "bufferView": 4,
      "byteOffset": 967584,
      "componentType": 5126,
      "count": 1670,
      "max": [
        0.9839233756065369,
        0.4689668118953705,
        0.25804638862609863,
        0.0
      ],
      "min": [
        0.4466792941093445,
        0.016076577827334404,
        0.0,
        0.0
      ],
      "type": "VEC4"
    },
    {
      "bufferView": 19,
      "componentType": 5123,
      "count": 16670,
      "type": "VEC4"
    },
    {
      "bufferView": 20,
      "componentType": 5126,
      "count": 16670,
      "type": "VEC4"
    },
    {
      "bufferView": 21,
      "componentType": 5126,
      "count": 37,
      "type": "MAT4"
    }
  ],
  "asset": {
    "extras": {
      "author": "KrimzonHaze (https://sketchfab.com/Krimzonhaze)",
      "license": "CC-BY-4.0 (http://creativecommons.org/licenses/by/4.0/)",
      "source": "https://sketchfab.com/3d-models/horror-mutant-bloody-nurse-gore-rigged-2bc6e1cac98e458a824691009ef2433c",
      "title": "Horror Mutant Bloody Nurse Gore (RIGGED)"
    },
    "generator": "Sketchfab-17.8.0",
    "version": "2.0"
  },
  "bufferViews": [
    {
      "buffer": 0,
      "byteLength": 306568,
      "byteStride": 8,
      "name": "shortBufferViews",
      "target": 34962
    },
    {
      "buffer": 0,
      "byteLength": 324480,
      "byteOffset": 306568,
      "name": "floatBufferViews",
      "target": 34963
    },
    {
      "buffer": 0,
      "byteLength": 376072,
      "byteOffset": 631048,
      "byteStride": 8,
      "name": "floatBufferViews",
      "target": 34962
    },
    {
      "buffer": 0,
      "byteLength": 971832,
      "byteOffset": 1007120,
      "byteStride": 12,
      "name": "floatBufferViews",
      "target": 34962
    },
    {
      "buffer": 0,
      "byteLength": 994304,
      "byteOffset": 1978952,
      "byteStride": 16,
      "name": "floatBufferViews",
      "target": 34962
    },
    {
      "buffer": 0,
      "byteLength": 1600,
      "byteOffset": 2973256,
      "name": "floatBufferViews"
    },
    {
      "buffer": 0,
      "byteLength": 370727,
      "byteOffset": 2974856,
      "name": "Body_low.002_baseColor.png"
    },
    {
      "buffer": 0,
      "byteLength": 177228,
      "byteOffset": 3345583,
      "name": "Body_low.002_metallicRoughness.png"
    },
    {
      "buffer": 0,
      "byteLength": 605,
      "byteOffset": 3522811,
      "name": "Body_low.002_normal.png"
    },
    {
      "buffer": 0,
      "byteLength": 397545,
      "byteOffset": 3523416,
      "name": "Hair_low.001_baseColor.png"
    },
    {
      "buffer": 0,
      "byteLength": 605,
      "byteOffset": 3920961,
      "name": "Hair_low.001_metallicRoughness.png"
    },
    {
      "buffer": 0,
      "byteLength": 762677,
      "byteOffset": 3921566,
      "name": "Hair_low.001_normal.png"
    },
    {
      "buffer": 0,
      "byteLength": 1328949,
      "byteOffset": 4684243,
      "name": "Material_0.001_baseColor.png"
    },
    {
      "buffer": 0,
      "byteLength": 1140199,
      "byteOffset": 6013192,
      "name": "Dress_low.001_baseColor.png"
    },
    {
      "buffer": 0,
      "byteLength": 611049,
      "byteOffset": 7153391,
      "name": "Dress_low.001_metallicRoughness.png"
    },
    {
      "buffer": 0,
      "byteLength": 1102397,
      "byteOffset": 7764440,
      "name": "Dress_low.001_normal.png"
    },
    {
      "buffer": 0,
      "byteLength": 226944,
      "byteOffset": 8866837,
      "name": "Metal_baseColor.png"
    },
    {
      "buffer": 0,
      "byteLength": 275968,
      "byteOffset": 9093781,
      "name": "Metal_metallicRoughness.png"
    },
    {
      "buffer": 0,
      "byteLength": 231327,
      "byteOffset": 9369749,
      "name": "Metal_normal.png"
    },
    {
      "buffer": 0,
      "byteOffset": 9601076,
      "byteLength": 133360
    },
    {
      "buffer": 0,
      "byteOffset": 9734436,
      "byteLength": 266720
    },
    {
      "buffer": 0,
      "byteOffset": 10001156,
      "byteLength": 2368
    }
  ],
  "buffers": [
    {
      "uri": "model.bin",
      "byteLength": 10003524
    }
  ],
  "images": [
    {
      "uri": "textures/high/image_00.png"
    },
    {
      "uri": "textures/high/image_01.png"
    },
    {
      "uri": "textures/high/image_02.png"
    },
    {
      "uri": "textures/high/image_03.png"
    },
    {
      "uri": "textures/high/image_04.png"
    },
    {
      "uri": "textures/high/image_05.png"
    },
    {
      "uri": "textures/high/image_06.png"
    },
    {
      "uri": "textures/high/image_07.png"
    },
    {
      "uri": "textures/high/image_08.png"
    },
    {
      "uri": "textures/high/image_09.png"
    },
    {
      "uri": "textures/high/image_10.png"
    },
    {
      "uri": "textures/high/image_11.png"
    },
    {
      "uri": "textures/high/image_12.png"
    }
  ],
  "materials": [
    {
      "doubleSided": true,
      "name": "Body_low.002",
      "normalTexture": {
        "index": 2
      },
      "pbrMetallicRoughness": {
        "baseColorTexture": {
          "index": 0
        },
        "metallicRoughnessTexture": {
          "index": 1
        }
      }
    },
    {
      "doubleSided": true,
      "name": "Hair_low.001",
      "normalTexture": {
        "index": 5
      },
      "pbrMetallicRoughness": {
        "baseColorTexture": {
          "index": 3
        },
        "metallicFactor": 0.8,
        "metallicRoughnessTexture": {
          "index": 4
        },
        "roughnessFactor": 0.583636
      }
    },
    {
      "name": "Material_0.001",
      "pbrMetallicRoughness": {
        "baseColorTexture": {
          "index": 6
        }
      }
    },
    {
      "doubleSided": true,
      "name": "Dress_low.001",
      "normalTexture": {
        "index": 9
      },
      "pbrMetallicRoughness": {
        "baseColorTexture": {
          "index": 7
        },
        "metallicRoughnessTexture": {
          "index": 8
        }
      }
    },
    {
      "doubleSided": true,
      "name": "Body_low.003",
      "normalTexture": {
        "index": 2
      },
      "pbrMetallicRoughness": {
        "baseColorTexture": {
          "index": 0
        },
        "metallicRoughnessTexture": {
          "index": 1
        }
      }
    },
    {
      "name": "Metal",
      "normalTexture": {
        "index": 12
      },
      "pbrMetallicRoughness": {
        "baseColorTexture": {
          "index": 10
        },
        "metallicRoughnessTexture": {
          "index": 11
        }
      }
    },
    {
      "name": "Metal.001",
      "normalTexture": {
        "index": 12
      },
      "pbrMetallicRoughness": {
        "baseColorTexture": {
          "index": 10
        },
        "metallicRoughnessTexture": {
          "index": 11
        }
      }
    }
  ],
  "meshes": [
    {
      "name": "Object_0",
      "primitives": [
        {
          "attributes": {
            "JOINTS_0": 41,
            "NORMAL": 1,
            "POSITION": 0,
            "TANGENT": 2,
            "TEXCOORD_0": 3,
            "TEXCOORD_1": 3,
            "TEXCOORD_2": 3,
            "TEXCOORD_3": 3,
            "WEIGHTS_0": 42
          },
          "indices": 4,
          "material": 0,
          "mode": 4
        }
      ]
    },
    {
      "name": "Object_1",
      "primitives": [
        {
          "attributes": {
            "JOINTS_0": 43,
            "NORMAL": 6,
            "POSITION": 5,
            "TANGENT": 7,
            "TEXCOORD_0": 8,
            "TEXCOORD_1": 8,
            "TEXCOORD_2": 8,
            "TEXCOORD_3": 8,
            "WEIGHTS_0": 44
          },
          "indices": 9,
          "material": 1,
          "mode": 4
        }
      ]
    },
    {
      "name": "Object_2",
      "primitives": [
        {
          "attributes": {
            "JOINTS_0": 51,
            "NORMAL": 11,
            "POSITION": 10,
            "TEXCOORD_0": 12,
            "WEIGHTS_0": 52
          },
          "indices": 13,
          "material": 2,
          "mode": 4
        }
      ]
    },
    {
      "name": "Object_3",
      "primitives": [
        {
          "attributes": {
            "JOINTS_0": 47,
            "NORMAL": 15,
            "POSITION": 14,
            "TANGENT": 16,
            "TEXCOORD_0": 17,
            "TEXCOORD_1": 17,
            "TEXCOORD_2": 17,
            "TEXCOORD_3": 17,
            "WEIGHTS_0": 48
          },
          "indices": 18,
          "material": 3,
          "mode": 4
        }
      ]
    },
    {
      "name": "Object_4",
      "primitives": [
        {
          "attributes": {
            "JOINTS_0": 49,
            "NORMAL": 20,
            "POSITION": 19,
            "TANGENT": 21,
            "TEXCOORD_0": 22,
            "TEXCOORD_1": 22,
            "TEXCOORD_2": 22,
            "TEXCOORD_3": 22,
            "WEIGHTS_0": 50
          },
          "indices": 23,
          "material": 4,
          "mode": 4
        }
      ]
    },
    {
      "name": "Object_5",
      "primitives": [
        {
          "attributes": {
            "NORMAL": 25,
            "POSITION": 24,
            "TANGENT": 26,
            "TEXCOORD_0": 27,
            "TEXCOORD_1": 28,
            "TEXCOORD_2": 29,
            "TEXCOORD_3": 30
          },
          "indices": 31,
          "material": 5,
          "mode": 4
        }
      ]
    },
    {
      "name": "Object_6",
      "primitives": [
        {
          "attributes": {
            "NORMAL": 33,
            "POSITION": 32,
            "TANGENT": 34,
            "TEXCOORD_0": 35,
            "TEXCOORD_1": 36,
            "TEXCOORD_2": 37,
            "TEXCOORD_3": 38
          },
          "indices": 39,
          "material": 6,
          "mode": 4
        }
      ]
    }
  ],
  "nodes": [
    {
      "children": [
        1
      ],
      "matrix": [
        1.0,
        0.0,
        0.0,
        0.0,
        0.0,
        2.220446049250313e-16,
        -1.0,
        0.0,
        0.0,
        1.0,
        2.220446049250313e-16,
        0.0,
        0.0,
        0.0,
        0.0,
        1.0
      ],
      "name": "Sketchfab_model"
    },
    {
      "children": [
        2
      ],
      "name": "root"
    },
    {
      "children": [
        3
      ],
      "matrix": [
        1.0,
        0.0,
        0.0,
        0.0,
        0.0,
        2.220446049250313e-16,
        1.0,
        0.0,
        0.0,
        -1.0,
        2.220446049250313e-16,
        0.0,
        0.0,
        0.0,
        0.0,
        1.0
      ],
      "name": "GLTF_SceneRootNode"
    },
    {
      "children": [
        4
      ],
      "name": "Main_Model_39"
    },
    {
      "children": [
        5,
        7,
        8,
        9,
        10,
        11,
        6,
        12,
        18
      ],
      "name": "GLTF_created_0"
    },
    {
      "children": [
        24,
        47,
        48,
        50,
        52,
        54,
        56,
        58
      ],
      "name": "GLTF_created_0_rootJoint"
    },
    {
      "name": "Body_low_Body_low_0.006_28"
    },
    {
      "mesh": 0,
      "name": "Object_7",
      "skin": 0
    },
    {
      "mesh": 1,
      "name": "Object_8",
      "skin": 0
    },
    {
      "mesh": 2,
      "name": "Object_9",
      "skin": 0
    },
    {
      "mesh": 3,
      "name": "Object_10",
      "skin": 0
    },
    {
      "mesh": 4,
      "name": "Object_11",
      "skin": 0
    },
    {
      "children": [
        13
      ],
      "name": "Weapon.L_33"
    },
    {
      "children": [
        14
      ],
      "name": "2d28e4b8bcb14f08ac72ff210cb7cfce.fbx_32"
    },
    {
      "children": [
        15
      ],
      "name": "RootNode.003_31"
    },
    {
      "children": [
        16
      ],
      "name": "Needle_30"
    },
    {
      "children": [
        17
      ],
      "name": "Needle_Metal_0_29"
    },
    {
      "mesh": 5,
      "name": "Object_17"
    },
    {
      "children": [
        19
      ],
      "name": "Weapon.R_38"
    },
    {
      "children": [
        20
      ],
      "name": "2d28e4b8bcb14f08ac72ff210cb7cfce.fbx.001_37"
    },
    {
      "children": [
        21
      ],
      "name": "RootNode.004_36"
    },
    {
      "children": [
        22
      ],
      "name": "Needle.001_35"
    },
    {
      "children": [
        23
      ],
      "name": "Needle_Metal_0.001_34"
    },
    {
      "mesh": 6,
      "name": "Object_23"
    },
    {
      "children": [
        25,
        39,
        43
      ],
      "name": "spine_26",
      "rotation": [
        0.12581966817378998,
        0.0,
        0.0,
        0.9920531511306763
      ],
      "translation": [
        0.19933095574378967,
        2.1965839862823486,
        -0.14600245654582977
      ]
    },
    {
      "children": [
        26
      ],
      "name": "spine.001_17",
      "rotation": [
        -0.06447643786668777,
        0.0,
        0.0,
        0.9979192614555359
      ],
      "translation": [
        -1.4901161193847656e-08,
        0.45985785126686096,
        1.4901161193847656e-08
      ]
    },
    {
      "children": [
        27
      ],
      "name": "spine.002_16",
      "rotation": [
        -0.07746412605047226,
        0.0,
        0.0,
        0.9969951510429382
      ],
      "scale": [
        1.0,
        0.9999999403953552,
        0.9999999403953552
      ],
      "translation": [
        1.4901161193847656e-08,
        0.41278213262557983,
        0.0
      ]
    },
    {
      "children": [
        28,
        31,
        35
      ],
      "name": "spine.003_15",
      "rotation": [
        0.0016271320637315512,
        0.0,
        0.0,
        0.9999986886978149
      ],
      "translation": [
        0.0,
        0.5222967863082886,
        5.122274160385132e-09
      ]
    },
    {
      "children": [
        29
      ],
      "name": "spine.004_6",
      "rotation": [
        0.20173783600330353,
        0.0,
        0.0,
        0.9794395565986633
      ],
      "translation": [
        0.0,
        0.5817830562591553,
        8.381903171539307e-09
      ]
    },
    {
      "children": [
        30
      ],
      "name": "spine.005_5",
      "rotation": [
        -0.0948576107621193,
        0.0,
        0.0,
        0.9954908490180969
      ],
      "scale": [
        1.0,
        0.9999999403953552,
        0.9999998807907104
      ],
      "translation": [
        0.0,
        0.1998809427022934,
        2.60770320892334e-08
      ]
    },
    {
      "name": "spine.006_4",
      "rotation": [
        -0.09371193498373032,
        0.0,
        0.0,
        0.9955993890762329
      ],
      "scale": [
        1.0,
        0.9999999403953552,
        0.9999999403953552
      ],
      "translation": [
        0.0,
        0.18942143023014069,
        2.9802322387695312e-08
      ]
    },
    {
      "children": [
        32
      ],
      "name": "shoulder.L_10",
      "rotation": [
        -0.6051543951034546,
        -0.3458625376224518,
        -0.3561345040798187,
        0.6223628520965576
      ],
      "scale": [
        1.0,
        1.0,
        1.0000001192092896
      ],
      "translation": [
        0.05528464913368225,
        0.4145471155643463,
        0.23639748990535736
      ]
    },
    {
      "children": [
        33
      ],
      "name": "upper_arm.L_9",
      "rotation": [
        -0.2580331563949585,
        0.7205977439880371,
        -0.40966740250587463,
        0.4963168799877167
      ],
      "scale": [
        1.0000001192092896,
        1.000000238418579,
        1.0000001192092896
      ],
      "translation": [
        -0.08136915415525436,
        0.6514212489128113,
        0.013808420859277248
      ]
    },
    {
      "children": [
        34
      ],
      "name": "forearm.L_8",
      "rotation": [
        0.17985747754573822,
        0.08996276557445526,
        -0.07867920398712158,
        0.9764055013656616
      ],
      "scale": [
        0.9999999403953552,
        0.9999999403953552,
        0.9999999403953552
      ],
      "translation": [
        2.7194619178771973e-07,
        0.915860652923584,
        -1.4901161193847656e-08
      ]
    },
    {
      "name": "hand.L_7",
      "rotation": [
        -0.08979993313550949,
        0.5441809892654419,
        -0.03361300006508827,
        0.8334705829620361
      ],
      "scale": [
        0.9999998807907104,
        0.9999997615814209,
        0.9999999403953552
      ],
      "translation": [
        -1.5459954738616943e-07,
        0.8911404013633728,
        1.4901161193847656e-08
      ]
    },
    {
      "children": [
        36
      ],
      "name": "shoulder.R_14",
      "rotation": [
        -0.6051544547080994,
        0.345862478017807,
        0.35613447427749634,
        0.6223628520965576
      ],
      "scale": [
        1.0,
        0.9999999403953552,
        1.0
      ],
      "translation": [
        -0.05528464913368225,
        0.4145471155643463,
        0.23639748990535736
      ]
    },
    {
      "children": [
        37
      ],
      "name": "upper_arm.R_13",
      "rotation": [
        -0.1017463281750679,
        -0.6630633473396301,
        0.5011617541313171,
        0.5466549396514893
      ],
      "scale": [
        1.0,
        0.9999998807907104,
        1.0
      ],
      "translation": [
        0.011914442293345928,
        0.8052282929420471,
        -0.013175767846405506
      ]
    },
    {
      "children": [
        38
      ],
      "name": "forearm.R_12",
      "rotation": [
        0.05800357833504677,
        -0.08505900204181671,
        0.06895940005779266,
        0.9922928810119629
      ],
      "scale": [
        1.0,
        1.0,
        1.0000001192092896
      ],
      "translation": [
        -3.236345946788788e-08,
        0.8904440999031067,
        -2.9802322387695312e-08
      ]
    },
    {
      "name": "hand.R_11",
      "rotation": [
        -0.037277951836586,
        -0.09988885372877121,
        0.09115216881036758,
        0.9901130795478821
      ],
      "scale": [
        1.0000001192092896,
        1.0000001192092896,
        0.9999999403953552
      ],
      "translation": [
        -2.6635825634002686e-07,
        0.6816815733909607,
        9.685754776000977e-08
      ]
    },
    {
      "children": [
        40
      ],
      "name": "thigh.L_21",
      "rotation": [
        0.9665014147758484,
        0.11620155721902847,
        -0.030902819707989693,
        0.22675399482250214
      ],
      "scale": [
        1.0,
        0.9999999403953552,
        0.9999999403953552
      ],
      "translation": [
        0.21597830951213837,
        -0.25604844093322754,
        0.5378830432891846
      ]
    },
    {
      "children": [
        41
      ],
      "name": "shin.L_20",
      "rotation": [
        -0.15692900121212006,
        -0.24902911484241486,
        -0.004405706189572811,
        0.955687403678894
      ],
      "scale": [
        1.0,
        1.0000001192092896,
        1.0
      ],
      "translation": [
        -1.043081283569336e-07,
        1.416567325592041,
        -4.7963112592697144e-08
      ]
    },
    {
      "children": [
        42
      ],
      "name": "foot.L_19",
      "rotation": [
        0.06426440924406052,
        0.08036713302135468,
        0.06834141910076141,
        0.9923411011695862
      ],
      "scale": [
        1.0,
        0.9999998807907104,
        1.0
      ],
      "translation": [
        3.073364496231079e-08,
        0.8599308729171753,
        8.940696716308594e-08
      ]
    },
    {
      "name": "toe.L_18",
      "rotation": [
        -0.12727873027324677,
        -0.1639140546321869,
        0.06539499014616013,
        0.9760408997535706
      ],
      "scale": [
        1.0000001192092896,
        1.0,
        1.0
      ],
      "translation": [
        -9.010545909404755e-08,
        0.6793657541275024,
        -1.4901161193847656e-07
      ]
    },
    {
      "children": [
        44
      ],
      "name": "thigh.R_25",
      "rotation": [
        0.9393404126167297,
        -0.027044260874390602,
        -0.014049326069653034,
        0.34162962436676025
      ],
      "scale": [
        1.0,
        1.0,
        0.9999998807907104
      ],
      "translation": [
        -0.4613901972770691,
        -0.03485830873250961,
        0.22418317198753357
      ]
    },
    {
      "children": [
        45
      ],
      "name": "shin.R_24",
      "rotation": [
        0.21181267499923706,
        0.06889506429433823,
        -0.038175225257873535,
        0.974131166934967
      ],
      "scale": [
        0.9999999403953552,
        0.9999998211860657,
        0.9999999403953552
      ],
      "translation": [
        2.2351741790771484e-08,
        1.5621976852416992,
        2.0489096641540527e-08
      ]
    },
    {
      "children": [
        46
      ],
      "name": "foot.R_23",
      "rotation": [
        -0.3367214500904083,
        -0.08508027344942093,
        0.449233740568161,
        0.823145866394043
      ],
      "scale": [
        1.0,
        0.9999998211860657,
        1.0
      ],
      "translation": [
        9.313225746154785e-09,
        0.8131198287010193,
        -4.6798959374427795e-08
      ]
    },
    {
      "name": "toe.R_22",
      "rotation": [
        0.4285205006599426,
        0.8981517553329468,
        0.07574586570262909,
        0.06289993226528168
      ],
      "scale": [
        1.0,
        1.0000001192092896,
        1.0
      ],
      "translation": [
        -6.705522537231445e-08,
        0.9487849473953247,
        5.960464477539063e-08
      ]
    },
    {
      "name": "neutral_bone_27",
      "rotation": [
        -0.7071068286895752,
        0.0,
        0.0,
        0.7071068286895752
      ]
    },
    {
      "name": "Tendril_0_base",
      "translation": [
        -0.44200000000000006,
        1.15,
        -0.25
      ],
      "children": [
        49
      ]
    },
    {
      "name": "Tendril_0_tip",
      "translation": [
        -0.572,
        -1.5,
        -0.48
      ]
    },
    {
      "name": "Tendril_1_base",
      "translation": [
        0.10200000000000001,
        1.15,
        -0.35
      ],
      "children": [
        51
      ]
    },
    {
      "name": "Tendril_1_tip",
      "translation": [
        0.13199999999999998,
        -1.5,
        -0.672
      ]
    },
    {
      "name": "Tendril_2_base",
      "translation": [
        0.493,
        1.15,
        -0.1875
      ],
      "children": [
        53
      ]
    },
    {
      "name": "Tendril_2_tip",
      "translation": [
        0.638,
        -1.5,
        -0.36
      ]
    },
    {
      "name": "Tendril_3_base",
      "translation": [
        -0.37400000000000005,
        1.15,
        0.3875
      ],
      "children": [
        55
      ]
    },
    {
      "name": "Tendril_3_tip",
      "translation": [
        -0.48400000000000004,
        -1.5,
        0.744
      ]
    },
    {
      "name": "Tendril_4_base",
      "translation": [
        -0.0918,
        1.15,
        0.325
      ],
      "children": [
        57
      ]
    },
    {
      "name": "Tendril_4_tip",
      "translation": [
        -0.1188,
        -1.5,
        0.6239999999999999
      ]
    },
    {
      "name": "Tendril_5_base",
      "translation": [
        0.4692,
        1.15,
        0.43
      ],
      "children": [
        59
      ]
    },
    {
      "name": "Tendril_5_tip",
      "translation": [
        0.6072,
        -1.5,
        0.8256000000000001
      ]
    }
  ],
  "samplers": [
    {
      "magFilter": 9729,
      "minFilter": 9987,
      "wrapS": 10497,
      "wrapT": 10497
    }
  ],
  "scene": 0,
  "scenes": [
    {
      "name": "Sketchfab_Scene",
      "nodes": [
        0
      ]
    }
  ],
  "skins": [
    {
      "inverseBindMatrices": 53,
      "joints": [
        5,
        24,
        25,
        26,
        27,
        28,
        29,
        30,
        31,
        32,
        33,
        34,
        35,
        36,
        37,
        38,
        39,
        40,
        41,
        42,
        43,
        44,
        45,
        46,
        47,
        48,
        49,
        50,
        51,
        52,
        53,
        54,
        55,
        56,
        57,
        58,
        59
      ],
      "skeleton": 5
    }
  ],
  "textures": [
    {
      "sampler": 0,
      "source": 0
    },
    {
      "sampler": 0,
      "source": 1
    },
    {
      "sampler": 0,
      "source": 2
    },
    {
      "sampler": 0,
      "source": 3
    },
    {
      "sampler": 0,
      "source": 4
    },
    {
      "sampler": 0,
      "source": 5
    },
    {
      "sampler": 0,
      "source": 6
    },
    {
      "sampler": 0,
      "source": 7
    },
    {
      "sampler": 0,
      "source": 8
    },
    {
      "sampler": 0,
      "source": 9
    },
    {
      "sampler": 0,
      "source": 10
    },
    {
      "sampler": 0,
      "source": 11
    },
    {
      "sampler": 0,
      "source": 12
    }
  ]
}